<svg t="1718308561465" class="icon" viewBox="0 0 1024 1024" version="1.1" xmlns="http://www.w3.org/2000/svg" p-id="4280" width="20" height="20"><path d="M512 512m-512 0a512 512 0 1 0 1024 0 512 512 0 1 0-1024 0Z" fill="#FFFFFF" p-id="4281"></path><path d="M512 982.805333c259.2 0 469.333333-210.133333 469.333333-469.333333s-210.133333-469.333333-469.333333-469.333333-469.333333 210.133333-469.333333 469.333333 210.133333 469.333333 469.333333 469.333333z" fill="#F0B90B" p-id="4282"></path><path d="M344.810667 297.429333l165.333333-96.213333 165.312 96.213333-60.8 35.562667-104.533333-60.693333-104.533334 60.693333-60.8-35.562667z m330.645333 121.386667l-60.8-35.562667-104.533333 60.672-104.533334-60.672-60.8 35.541334v71.104l104.554667 60.693333v121.344l60.8 35.562667 60.778667-35.562667v-121.365333l104.533333-60.672v-71.104z m0 192.426667V540.16l-60.8 35.541333v71.104l60.8-35.541333z m43.157333 25.152l-104.533333 60.672v71.104l165.312-96.213334v-192.469333l-60.8 35.541333v121.365334z m-60.8-278.272l60.8 35.541333v71.104l60.778667-35.562667v-71.082666l-60.8-35.562667-60.757333 35.562667z m-208.469333 364.693333v71.104l60.8 35.541333 60.778667-35.541333v-71.104l-60.8 35.541333-60.778667-35.541333z m-104.533333-111.573333l60.778666 35.562666v-71.082666l-60.8-35.562667v71.104z m104.533333-253.12l60.8 35.541333 60.778667-35.541333-60.8-35.562667-60.778667 35.562667z m-147.690667 35.541333l60.8-35.541333-60.8-35.562667-60.8 35.562667v71.082666l60.8 35.562667v-71.104z m0 121.365333l-60.8-35.541333v192.448l165.333334 96.234667v-71.104l-104.533334-60.672v-121.365334z" fill="#FFFFFF" p-id="4283"></path></svg>