<svg width="20" height="20" viewBox="0 0 1024 1024" fill="none" xmlns="http://www.w3.org/2000/svg">
    <g clip-path="url(#clip0_315_459)">
    <g clip-path="url(#clip1_315_459)">
    <path d="M945.482 736.635C938.035 750.46 928.372 763.088 918.621 774.701C899.118 797.836 875.449 818.482 848.322 831.11C817.206 845.673 782.189 849.452 748.945 841.34C707.014 831.11 671.111 803.366 644.693 768.526C602.407 712.762 570.316 648.612 529.005 580.59C522.091 620.5 519.697 656.17 509.414 689.259C491.506 747.234 474.397 806.777 446.561 859.775C409.594 930.101 323.515 951.023 247.72 917.842C188.856 892.126 151.801 816.547 169.885 744.838C176.8 717.555 195.948 688.706 217.49 671.193C263.765 633.68 315.182 602.987 364.649 569.714C379.896 559.483 395.676 549.989 412.254 539.574C333.089 527.223 257.471 519.296 183.626 502.521C126.713 489.617 78.9304 456.713 68.4698 389.797C58.3637 324.448 73.3455 266.196 129.283 228.222C185.931 189.694 245.149 201.123 302.328 228.682C376.262 264.26 422.094 331.453 470.23 395.603C475.638 402.793 480.159 410.627 485.744 417.632C487.074 419.291 491.063 418.738 494.786 419.383C500.726 366.938 503.208 313.94 513.403 262.509C524.839 205.087 549.483 154.669 611.361 138.171C669.87 122.594 714.461 140.199 744.956 190.985C774.742 240.48 774.122 304.631 734.761 344.264C692.741 386.663 644.161 422.241 598.241 460.491C587.514 469.432 576.167 477.451 556.93 492.014C628.736 503.443 689.461 512.199 749.832 522.891C789.281 529.896 828.11 542.523 862.86 563.262C897.611 584 931.032 613.126 948.762 649.441C955.411 663.175 959.223 678.567 958.336 693.96C957.538 709.168 952.574 723.362 945.482 736.542V736.635Z" fill="url(#paint0_diamond_315_459)"/>
    </g>
    </g>
    <defs>
    <radialGradient id="paint0_diamond_315_459" cx="0" cy="0" r="1" gradientUnits="userSpaceOnUse" gradientTransform="translate(500.551 498.655) rotate(-146.336) scale(288.842 165.94)">
    <stop stop-color="#14E0A1"/>
    <stop offset="1" stop-color="#166BF3"/>
    </radialGradient>
    <clipPath id="clip0_315_459">
    <rect width="1024" height="1024" rx="512" fill="white"/>
    </clipPath>
    <clipPath id="clip1_315_459">
    <rect width="892.928" height="800.556" fill="white" transform="translate(65.5352 132.687)"/>
    </clipPath>
    </defs>
    </svg>
    